<svg width="20" height="34" viewBox="0 0 20 34" fill="none" xmlns="http://www.w3.org/2000/svg">
<path d="M5.04866 27.3109L10.0338 6.45456H14.847L19.8321 27.3109L12.3258 33.2698L5.04866 27.3109Z" fill="#FF6600"/>
<path d="M14.847 5.18552H10.0338L8.25747 2.5371C7.76202 1.59003 8.87851 0.720558 9.63664 0.661133H15.2998C15.9966 0.661133 16.8505 1.83576 16.4514 2.5371L14.847 5.18552Z" fill="#FF6600"/>
<path d="M0.858398 21.0469V16.2789L8.74426 7.73191L5.69995 19.8814L0.858398 21.0469Z" fill="#FF6600"/>
<path d="M8.25738 2.5371C7.76193 1.59003 8.87842 0.720558 9.63655 0.661133H12.4681L12.4403 5.18552H10.0337L8.25738 2.5371Z" fill="url(#paint0_linear_2335_31574)"/>
<path d="M12.3145 6.45508H14.8446L17.114 15.9242L12.3145 20.6714V6.45508Z" fill="url(#paint1_linear_2335_31574)"/>
<path fill-rule="evenodd" clip-rule="evenodd" d="M6.64473 20.5268L6.25582 22.1539C9.51678 18.9811 16.0777 12.5806 16.2336 12.3613L16.0387 11.546L6.64473 20.5268ZM14.8216 6.4541L15.0864 7.56175L8.17153 14.1391L8.48246 12.8383L14.8216 6.4541ZM17.1438 16.1695L5.29492 27.5328L6.00681 28.1158L17.395 17.2203L17.1438 16.1695ZM9.22444 30.7506L8.52966 30.1606L18.2693 20.8783L18.54 22.0105L9.22444 30.7506Z" fill="white"/>
<defs>
<linearGradient id="paint0_linear_2335_31574" x1="10.3014" y1="5.18552" x2="13.916" y2="2.82559" gradientUnits="userSpaceOnUse">
<stop stop-color="#EA7438" stop-opacity="0"/>
<stop offset="1" stop-color="#EA8D38"/>
</linearGradient>
<linearGradient id="paint1_linear_2335_31574" x1="12.3145" y1="20.6714" x2="17.1122" y2="21.0175" gradientUnits="userSpaceOnUse">
<stop stop-color="#EAB838"/>
<stop offset="1" stop-color="#EA7438" stop-opacity="0"/>
</linearGradient>
</defs>
</svg>
